<svg aria-hidden="true" style="position:absolute;width:0;height:0;overflow:hidden" xmlns="http://www.w3.org/2000/svg">
  <defs>
    <symbol id="icon-logo" viewBox="0 0 142 32">
      <path d="M48.964 31.522a9.13 9.13 0 0 1-4.614-1.18 8.801 8.801 0 0 1-3.227-3.188 9.044 9.044 0 0 1-1.18-4.593V8.551h3.726V22.6a5.826 5.826 0 0 0 .702 2.878 5.054 5.054 0 0 0 1.904 1.883 5.528 5.528 0 0 0 2.692.663 5.386 5.386 0 0 0 2.692-.663 4.914 4.914 0 0 0 1.861-1.883 5.7 5.7 0 0 0 .685-2.835V8.551h3.726v14.113a8.997 8.997 0 0 1-1.159 4.575 8.734 8.734 0 0 1-3.188 3.188 8.94 8.94 0 0 1-4.614 1.095h-.007zM31.212 12.565a8.578 8.578 0 0 0-3.227-3.209 9.282 9.282 0 0 0-4.614-1.159 9.142 9.142 0 0 0-4.614 1.262 8.697 8.697 0 0 0-2.535 2.221 8.605 8.605 0 0 0-2.639-2.325 9.282 9.282 0 0 0-4.614-1.159 9.085 9.085 0 0 0-4.596 1.262 8.586 8.586 0 0 0-3.188 3.188 8.904 8.904 0 0 0-1.184 4.575v14.135h3.748V17.26a5.608 5.608 0 0 1 .685-2.835 4.598 4.598 0 0 1 1.843-1.883 5.269 5.269 0 0 1 2.692-.685 5.405 5.405 0 0 1 2.71.685 4.738 4.738 0 0 1 1.883 1.883c.488.87.731 1.858.702 2.856v14.07h3.872V17.259a5.646 5.646 0 0 1 .681-2.835 4.645 4.645 0 0 1 1.865-1.883 5.228 5.228 0 0 1 2.689-.685 5.319 5.319 0 0 1 2.692.685 4.74 4.74 0 0 1 1.904 1.883c.478.874.72 1.858.702 2.856v14.07h3.726V17.155a8.938 8.938 0 0 0-1.18-4.593h-.004zM74.095 8.198a9.282 9.282 0 0 1 4.614 1.159 9.014 9.014 0 0 1 3.227 3.209 8.943 8.943 0 0 1 1.18 4.593v14.096h-3.744V17.202a5.736 5.736 0 0 0-.685-2.878 4.882 4.882 0 0 0-1.904-1.883 5.367 5.367 0 0 0-2.689-.663 5.2 5.2 0 0 0-2.692.663 4.82 4.82 0 0 0-1.861 1.883 5.7 5.7 0 0 0-.685 2.835v14.096H65.13V17.12a9.13 9.13 0 0 1 1.159-4.575 8.734 8.734 0 0 1 3.188-3.188 9.127 9.127 0 0 1 4.614-1.159h.004zM76.5 4.62a4.13 4.13 0 0 1-1.822-.392l-1.366-.767a2.819 2.819 0 0 0-1.43-.374 2.548 2.548 0 0 0-1.284.289 3.718 3.718 0 0 0-.952.891l-1.904-1.925A8.762 8.762 0 0 1 69.625.645a3.718 3.718 0 0 1 2.193-.642 4.017 4.017 0 0 1 1.822.371c.496.25.973.496 1.408.767.421.253.899.389 1.387.392.46.021.916-.078 1.323-.289a3.1 3.1 0 0 0 .909-.891l1.926 1.925a9.93 9.93 0 0 1-1.883 1.697 3.785 3.785 0 0 1-2.214.642l.004.004zM101.067 31.585a11.51 11.51 0 0 1-4.533-.909 11.807 11.807 0 0 1-3.705-2.525 11.926 11.926 0 0 1-2.482-3.726 11.635 11.635 0 0 1-.891-4.575 11.442 11.442 0 0 1 .891-4.532 11.85 11.85 0 0 1 2.464-3.726 11.433 11.433 0 0 1 3.662-2.503 11.407 11.407 0 0 1 4.532-.891 11.259 11.259 0 0 1 4.532.891 11.262 11.262 0 0 1 3.683 2.503 11.636 11.636 0 0 1 3.374 8.301 11.54 11.54 0 0 1-.892 4.553 11.129 11.129 0 0 1-2.464 3.726 12.13 12.13 0 0 1-3.662 2.503c-1.426.61-2.96.916-4.51.909zm0-3.58a7.837 7.837 0 0 0 4.139-1.034 7.224 7.224 0 0 0 2.71-2.878 8.726 8.726 0 0 0 .994-4.243 9.021 9.021 0 0 0-.559-3.248 7.277 7.277 0 0 0-1.615-2.564 7.129 7.129 0 0 0-2.443-1.676 8.129 8.129 0 0 0-3.145-.578 7.721 7.721 0 0 0-3.994 1.013 7.316 7.316 0 0 0-2.731 2.835 8.747 8.747 0 0 0-.995 4.14 9.511 9.511 0 0 0 .56 3.309 7.697 7.697 0 0 0 1.594 2.567 7.05 7.05 0 0 0 2.464 1.676c.934.414 1.94.645 2.96.681h.061zM121.88 27.778l11.846-16.723V8.552h-16.038v3.313l11.029.071-11.796 16.649v2.607h16.81V27.78h-11.85z"/>
    </symbol>

     <symbol id="icon-vector-down" viewBox="0 0 51 32">
      <path   opacity=".8" d="m1.897 12.252 16.576 16.576a6.369 6.369 0 0 0 4.512 1.871 6.375 6.375 0 0 0 4.512-1.871l16.576-16.576c4.032-4.032 1.152-10.944-4.544-10.944H6.377c-5.696 0-8.512 6.912-4.48 10.944z"/>
    </symbol>

  <symbol id="arrow-right" viewBox="0 0 243 14">
  

        <path d="M141 6.5h100v1H141z"/>
        
        <path  d="m235.5 1 6 6-6 6"/>
       
   
  </symbol>

  <symbol id="arrow-left">
   <path   d="M101.5 7.5H1.5v-1h100z"/>
    <path   d="M7 13 1 7l6-6" stroke-opacity="0.2"/>
  </symbol>

  <symbol id="face-book">
      
    <path  viewBox="0 0 23 24" fill-rule="evenodd"  d="M11.4 0C5.10395 0 0 5.37258 0 12C0 18.6274 5.10395 24 11.4 24C17.696 24 22.8 18.6274 22.8 12C22.8 5.37258 17.696 0 11.4 0ZM12.5882 12.5271V19.0557H10.0221V12.5274H8.74V10.2776H10.0221V8.92678C10.0221 7.0914 10.746 6 12.8028 6H14.5151V8.25006H13.4448C12.6441 8.25006 12.5911 8.56447 12.5911 9.15125L12.5882 10.2773H14.5272L14.3003 12.5271H12.5882Z" />
   
  </symbol>
    <symbol id="linkedIn">
    
      <path viewBox="0 0 24 24" fill-rule="evenodd" clip-rule="evenodd" d="M12.2008 0C5.90474 0 0.800781 5.37258 0.800781 12C0.800781 18.6274 5.90474 24 12.2008 24C18.4968 24 23.6008 18.6274 23.6008 12C23.6008 5.37258 18.4968 0 12.2008 0ZM6.27355 9.93892H8.85704V18.1098H6.27355V9.93892ZM9.02719 7.41135C9.01043 6.6102 8.46617 6 7.58237 6C6.69858 6 6.12078 6.6102 6.12078 7.41135C6.12078 8.1959 6.6815 8.82367 7.54884 8.82367H7.56535C8.46617 8.82367 9.02719 8.1959 9.02719 7.41135ZM15.1995 9.74706C16.8996 9.74706 18.1741 10.9151 18.1741 13.4249L18.174 18.1098H15.5906V13.7384C15.5906 12.6404 15.2168 11.8911 14.2815 11.8911C13.5678 11.8911 13.1426 12.3962 12.9559 12.8841C12.8876 13.0589 12.8709 13.3025 12.8709 13.5467V18.11H10.2871C10.2871 18.11 10.3211 10.7059 10.2871 9.93914H12.8709V11.0965C13.2137 10.5401 13.8279 9.74706 15.1995 9.74706Z" fill="white"/>
     
    </symbol>

    <symbol id="rss">
    
      <path viewBox="0 0 25 24" fill-rule="evenodd" clip-rule="evenodd" d="M12.5996 0C5.97219 0 0.599609 5.37258 0.599609 12C0.599609 18.6274 5.97219 24 12.5996 24C19.227 24 24.5996 18.6274 24.5996 12C24.5996 5.37258 19.227 0 12.5996 0ZM9.39971 16.8C8.51612 16.8 7.79973 16.0836 7.79973 15.2C7.79973 14.3164 8.51612 13.6 9.39971 13.6C10.2833 13.6 10.9997 14.3164 10.9997 15.2C10.9997 16.0836 10.2833 16.8 9.39971 16.8ZM18.9996 16.8C18.9996 10.6244 13.9753 5.6 7.79973 5.6V7.7332C12.7993 7.7332 16.8664 11.8004 16.8664 16.8H18.9996ZM7.79961 9.3332C11.9168 9.3332 15.2663 12.6828 15.2663 16.8H13.1332C13.1332 13.8592 10.7404 11.4668 7.79961 11.4668V9.3332Z" fill="white"/>
      
    </symbol>
    <symbol id="pinterest" viewBox="0 0 32 32">
  <path d="M0.799 15.93c0 8.684 6.793 15.725 15.175 15.725 8.381 0 15.175-7.042 15.175-15.725s-6.794-15.724-15.175-15.724c-8.382 0-15.175 7.040-15.175 15.724zM10.943 29.2c-5.115-2.077-8.74-7.234-8.74-13.27 0-7.872 6.157-14.25 13.753-14.25s13.752 6.378 13.752 14.25c0 7.87-6.157 14.25-13.752 14.25-1.419 0-2.786-0.222-4.072-0.637 0.559-0.947 1.398-2.498 1.708-3.736 0.167-0.667 0.857-3.387 0.857-3.387 0.449 0.886 1.759 1.637 3.153 1.637 4.146 0 7.135-3.953 7.135-8.864 0-4.707-3.708-8.231-8.478-8.231-5.934 0-9.086 4.13-9.086 8.625 0 2.088 1.073 4.692 2.789 5.521 0.262 0.125 0.401 0.069 0.462-0.192 0.018-0.080 0.068-0.286 0.126-0.533 0.086-0.363 0.194-0.814 0.256-1.082 0.033-0.145 0.016-0.268-0.096-0.409-0.569-0.714-1.022-2.028-1.022-3.252 0-3.143 2.297-6.184 6.209-6.184 3.379 0 5.744 2.385 5.744 5.797 0 3.855-1.879 6.526-4.324 6.526-1.349 0-2.36-1.155-2.037-2.575 0.14-0.612 0.328-1.242 0.51-1.854 0.323-1.082 0.629-2.11 0.629-2.891 0-1.095-0.567-2.008-1.739-2.008-1.382 0-2.488 1.479-2.488 3.461 0 1.261 0.411 2.115 0.411 2.115s-1.364 5.971-1.612 7.082c-0.276 1.233-0.169 2.963-0.049 4.089z"></path>
  </symbol>

  <symbol id="YouTube" viewBox="0 0 31 32">
  <path d="M15.2 0c-8.395 0-15.2 7.163-15.2 16s6.805 16 15.2 16c8.395 0 15.2-7.163 15.2-16s-6.805-16-15.2-16zM21.534 10.5c0.698 0.202 1.247 0.795 1.433 1.549 0.339 1.367 0.339 4.218 0.339 4.218s0 2.851-0.339 4.218c-0.187 0.754-0.736 1.348-1.433 1.549-1.264 0.366-6.334 0.366-6.334 0.366s-5.070 0-6.334-0.366c-0.698-0.202-1.247-0.795-1.434-1.549-0.339-1.367-0.339-4.218-0.339-4.218s0-2.851 0.339-4.218c0.186-0.754 0.736-1.348 1.434-1.549 1.264-0.366 6.334-0.366 6.334-0.366s5.070 0 6.334 0.366z"></path>
  <path d="M13.68 19.2v-5.333l4.053 2.667-4.053 2.667z"></path>
</symbol>

<symbol id="instagramm" >


<path  viewBox="0 0 24 24" fill-rule="evenodd" clip-rule="evenodd" d="M12.2008 0C5.90474 0 0.800781 5.37258 0.800781 12C0.800781 18.6274 5.90474 24 12.2008 24C18.4968 24 23.6008 18.6274 23.6008 12C23.6008 5.37258 18.4968 0 12.2008 0ZM9.69434 5.63867C10.3429 5.6076 10.5501 5.6 12.2014 5.6H12.1995C13.8512 5.6 14.0577 5.6076 14.7062 5.63867C15.3535 5.66987 15.7956 5.77774 16.1832 5.936C16.5834 6.09934 16.9216 6.31801 17.2598 6.67401C17.598 7.02975 17.8058 7.38682 17.9616 7.80776C18.111 8.21469 18.2136 8.67977 18.244 9.36111C18.2732 10.0438 18.2808 10.2619 18.2808 12.0001C18.2808 13.7382 18.2732 13.9558 18.244 14.6385C18.2136 15.3196 18.111 15.7848 17.9616 16.1918C17.8058 16.6126 17.598 16.9697 17.2598 17.3255C16.922 17.6815 16.5833 17.9007 16.1835 18.0641C15.7967 18.2224 15.3544 18.3303 14.7071 18.3615C14.0586 18.3925 13.852 18.4001 12.2006 18.4001C10.5495 18.4001 10.3424 18.3925 9.69383 18.3615C9.04668 18.3303 8.60474 18.2224 8.2179 18.0641C7.81826 17.9007 7.47904 17.6815 7.14122 17.3255C6.80314 16.9697 6.59541 16.6126 6.43998 16.1917C6.28976 15.7848 6.18728 15.3197 6.15751 14.6384C6.12813 13.9557 6.12078 13.7382 6.12078 12.0001C6.12078 10.2619 6.12838 10.0436 6.15739 9.36097C6.18652 8.6799 6.28912 8.21469 6.43986 7.80762C6.59566 7.38682 6.80339 7.02975 7.1416 6.67401C7.47955 6.31814 7.81877 6.09947 8.21866 5.936C8.60525 5.77774 9.04706 5.66987 9.69434 5.63867Z" fill="white"/>
<path fill-rule="evenodd" clip-rule="evenodd" d="M11.6557 6.75331C11.7617 6.75313 11.8756 6.75319 11.9985 6.75325L12.2012 6.75331C13.8246 6.75331 14.017 6.75944 14.658 6.79011C15.2508 6.81864 15.5726 6.92291 15.7869 7.01051C16.0706 7.12651 16.2729 7.26518 16.4856 7.48918C16.6984 7.71319 16.8301 7.92652 16.9406 8.22519C17.0238 8.45053 17.123 8.7892 17.15 9.4132C17.1791 10.0879 17.1854 10.2905 17.1854 11.9986C17.1854 13.7066 17.1791 13.9093 17.15 14.5839C17.1229 15.2079 17.0238 15.5466 16.9406 15.7719C16.8304 16.0706 16.6984 16.2833 16.4856 16.5071C16.2728 16.7311 16.0708 16.8698 15.7869 16.9858C15.5728 17.0738 15.2508 17.1778 14.658 17.2064C14.0171 17.237 13.8246 17.2437 12.2012 17.2437C10.5777 17.2437 10.3853 17.237 9.74433 17.2064C9.15152 17.1776 8.82979 17.0733 8.61534 16.9857C8.3316 16.8697 8.12893 16.731 7.91613 16.507C7.70333 16.283 7.57159 16.0702 7.46114 15.7714C7.37792 15.5461 7.27874 15.2074 7.25176 14.5834C7.22262 13.9087 7.2168 13.706 7.2168 11.997C7.2168 10.2879 7.22262 10.0863 7.25176 9.4116C7.27886 8.7876 7.37792 8.44893 7.46114 8.22332C7.57134 7.92465 7.70333 7.71132 7.91613 7.48732C8.12893 7.26331 8.3316 7.12465 8.61534 7.00838C8.82966 6.92038 9.15152 6.81638 9.74433 6.78771C10.3052 6.76104 10.5226 6.75304 11.6557 6.75171V6.75331ZM15.4467 7.81599C15.0439 7.81599 14.7171 8.15959 14.7171 8.58373C14.7171 9.00773 15.0439 9.35174 15.4467 9.35174C15.8495 9.35174 16.1763 9.00773 16.1763 8.58373C16.1763 8.15972 15.8495 7.81572 15.4467 7.81572V7.81599ZM9.07882 12C9.07882 10.185 10.4768 8.7134 12.2011 8.71333C13.9254 8.71333 15.323 10.1849 15.323 12C15.323 13.8151 13.9255 15.2861 12.2012 15.2861C10.4769 15.2861 9.07882 13.8151 9.07882 12Z" fill="white"/>
<path d="M12.2005 9.8667C13.3198 9.8667 14.2272 10.8218 14.2272 12.0001C14.2272 13.1782 13.3198 14.1334 12.2005 14.1334C11.0812 14.1334 10.1738 13.1782 10.1738 12.0001C10.1738 10.8218 11.0812 9.8667 12.2005 9.8667Z" />


</symbol>

<symbol id="twitter">
  
<path viewBox="0 0 24 24" fill-rule="evenodd" clip-rule="evenodd" d="M11.9996 0C5.70356 0 0.599609 5.37258 0.599609 12C0.599609 18.6274 5.70356 24 11.9996 24C18.2957 24 23.3996 18.6274 23.3996 12C23.3996 5.37258 18.2957 0 11.9996 0ZM11.6821 10.169L11.6582 9.75375C11.5864 8.67755 12.2164 7.69456 13.2131 7.31323C13.5799 7.17765 14.2019 7.1607 14.6086 7.27934C14.7681 7.33018 15.0711 7.49966 15.2864 7.65219L15.6771 7.93184L16.1077 7.78778C16.3469 7.71151 16.6659 7.5844 16.8094 7.49966C16.945 7.42339 17.0646 7.38102 17.0646 7.40645C17.0646 7.5505 16.7696 8.042 16.5224 8.31317C16.1874 8.6945 16.2831 8.72839 16.9609 8.47417C17.3676 8.33011 17.3756 8.33011 17.2958 8.49112C17.248 8.57586 17.0008 8.87245 16.7377 9.14362C16.2911 9.60969 16.2672 9.66054 16.2672 10.0503C16.2672 10.652 15.9961 11.9062 15.725 12.5925C15.2226 13.8806 14.1461 15.211 13.0696 15.8805C11.5545 16.8211 9.53708 17.0584 7.8386 16.5075C7.27245 16.3211 6.29961 15.8466 6.29961 15.7618C6.29961 15.7364 6.59465 15.7025 6.95348 15.694C7.70304 15.6771 8.45261 15.4568 9.09053 15.067L9.52113 14.7958L9.02674 14.6178C8.32502 14.3636 7.69507 13.7789 7.53559 13.2281C7.48774 13.0501 7.50369 13.0417 7.95024 13.0417L8.41274 13.0332L8.02201 12.8383C7.55951 12.5925 7.13689 12.1773 6.92956 11.7536C6.77805 11.4486 6.58668 10.6774 6.64249 10.6181C6.65844 10.5927 6.8259 10.6435 7.01727 10.7113C7.56749 10.9232 7.63925 10.8723 7.32029 10.5164C6.72223 9.87239 6.53883 8.91482 6.8259 8.0081L6.96146 7.60135L7.48774 8.15216C8.56424 9.26226 9.83212 9.92323 11.2834 10.1181L11.6821 10.169Z" />

</symbol>

<symbol id="arch">

<path viewBox="0 0 53 68" d="M26.4364 0.868833C31.2024 0.803846 35.9004 1.99236 40.0504 4.31356C43.989 6.5428 47.2721 9.75132 49.5745 13.6215C51.9196 17.7078 53.1206 22.3395 53.054 27.0389L53.054 67.9565L42.0655 67.9565L42.0655 26.9182C42.1203 23.9872 41.4045 21.0922 39.9893 18.5171C38.6512 16.2167 36.7112 14.3163 34.3731 13.0169C31.9346 11.7203 29.2042 11.0553 26.4364 11.0831C23.666 11.0337 20.9302 11.7 18.4996 13.0169C16.1952 14.3191 14.2956 16.2214 13.0057 18.5171C11.6191 21.0571 10.9243 23.9108 10.9906 26.7972L10.9906 67.9565L0.00203323 67.9565L0.00203684 26.7367C-0.0781248 22.0626 1.10162 17.4518 3.42044 13.3795C5.67545 9.51424 8.91808 6.3044 12.8224 4.07193C16.9874 1.81285 21.6901 0.70651 26.4364 0.868833Z" fill="white"/>

</symbol>

<symbol id="icon-arrow-right2" viewBox="0 0 32 32">
<path d="M19.414 27.414l10-10c0.781-0.781 0.781-2.047 0-2.828l-10-10c-0.781-0.781-2.047-0.781-2.828 0s-0.781 2.047 0 2.828l6.586 6.586h-19.172c-1.105 0-2 0.895-2 2s0.895 2 2 2h19.172l-6.586 6.586c-0.39 0.39-0.586 0.902-0.586 1.414s0.195 1.024 0.586 1.414c0.781 0.781 2.047 0.781 2.828 0z"></path>
</symbol>
  </defs>
</svg>


   
 