<svg aria-hidden="true" style="position:absolute;width:0;height:0;overflow:hidden" xmlns="http://www.w3.org/2000/svg">
  <defs>
    <symbol id="icon-logo" viewBox="0 0 142 32">
      <path d="M48.964 31.522a9.13 9.13 0 0 1-4.614-1.18 8.801 8.801 0 0 1-3.227-3.188 9.044 9.044 0 0 1-1.18-4.593V8.551h3.726V22.6a5.826 5.826 0 0 0 .702 2.878 5.054 5.054 0 0 0 1.904 1.883 5.528 5.528 0 0 0 2.692.663 5.386 5.386 0 0 0 2.692-.663 4.914 4.914 0 0 0 1.861-1.883 5.7 5.7 0 0 0 .685-2.835V8.551h3.726v14.113a8.997 8.997 0 0 1-1.159 4.575 8.734 8.734 0 0 1-3.188 3.188 8.94 8.94 0 0 1-4.614 1.095h-.007zM31.212 12.565a8.578 8.578 0 0 0-3.227-3.209 9.282 9.282 0 0 0-4.614-1.159 9.142 9.142 0 0 0-4.614 1.262 8.697 8.697 0 0 0-2.535 2.221 8.605 8.605 0 0 0-2.639-2.325 9.282 9.282 0 0 0-4.614-1.159 9.085 9.085 0 0 0-4.596 1.262 8.586 8.586 0 0 0-3.188 3.188 8.904 8.904 0 0 0-1.184 4.575v14.135h3.748V17.26a5.608 5.608 0 0 1 .685-2.835 4.598 4.598 0 0 1 1.843-1.883 5.269 5.269 0 0 1 2.692-.685 5.405 5.405 0 0 1 2.71.685 4.738 4.738 0 0 1 1.883 1.883c.488.87.731 1.858.702 2.856v14.07h3.872V17.259a5.646 5.646 0 0 1 .681-2.835 4.645 4.645 0 0 1 1.865-1.883 5.228 5.228 0 0 1 2.689-.685 5.319 5.319 0 0 1 2.692.685 4.74 4.74 0 0 1 1.904 1.883c.478.874.72 1.858.702 2.856v14.07h3.726V17.155a8.938 8.938 0 0 0-1.18-4.593h-.004zM74.095 8.198a9.282 9.282 0 0 1 4.614 1.159 9.014 9.014 0 0 1 3.227 3.209 8.943 8.943 0 0 1 1.18 4.593v14.096h-3.744V17.202a5.736 5.736 0 0 0-.685-2.878 4.882 4.882 0 0 0-1.904-1.883 5.367 5.367 0 0 0-2.689-.663 5.2 5.2 0 0 0-2.692.663 4.82 4.82 0 0 0-1.861 1.883 5.7 5.7 0 0 0-.685 2.835v14.096H65.13V17.12a9.13 9.13 0 0 1 1.159-4.575 8.734 8.734 0 0 1 3.188-3.188 9.127 9.127 0 0 1 4.614-1.159h.004zM76.5 4.62a4.13 4.13 0 0 1-1.822-.392l-1.366-.767a2.819 2.819 0 0 0-1.43-.374 2.548 2.548 0 0 0-1.284.289 3.718 3.718 0 0 0-.952.891l-1.904-1.925A8.762 8.762 0 0 1 69.625.645a3.718 3.718 0 0 1 2.193-.642 4.017 4.017 0 0 1 1.822.371c.496.25.973.496 1.408.767.421.253.899.389 1.387.392.46.021.916-.078 1.323-.289a3.1 3.1 0 0 0 .909-.891l1.926 1.925a9.93 9.93 0 0 1-1.883 1.697 3.785 3.785 0 0 1-2.214.642l.004.004zM101.067 31.585a11.51 11.51 0 0 1-4.533-.909 11.807 11.807 0 0 1-3.705-2.525 11.926 11.926 0 0 1-2.482-3.726 11.635 11.635 0 0 1-.891-4.575 11.442 11.442 0 0 1 .891-4.532 11.85 11.85 0 0 1 2.464-3.726 11.433 11.433 0 0 1 3.662-2.503 11.407 11.407 0 0 1 4.532-.891 11.259 11.259 0 0 1 4.532.891 11.262 11.262 0 0 1 3.683 2.503 11.636 11.636 0 0 1 3.374 8.301 11.54 11.54 0 0 1-.892 4.553 11.129 11.129 0 0 1-2.464 3.726 12.13 12.13 0 0 1-3.662 2.503c-1.426.61-2.96.916-4.51.909zm0-3.58a7.837 7.837 0 0 0 4.139-1.034 7.224 7.224 0 0 0 2.71-2.878 8.726 8.726 0 0 0 .994-4.243 9.021 9.021 0 0 0-.559-3.248 7.277 7.277 0 0 0-1.615-2.564 7.129 7.129 0 0 0-2.443-1.676 8.129 8.129 0 0 0-3.145-.578 7.721 7.721 0 0 0-3.994 1.013 7.316 7.316 0 0 0-2.731 2.835 8.747 8.747 0 0 0-.995 4.14 9.511 9.511 0 0 0 .56 3.309 7.697 7.697 0 0 0 1.594 2.567 7.05 7.05 0 0 0 2.464 1.676c.934.414 1.94.645 2.96.681h.061zM121.88 27.778l11.846-16.723V8.552h-16.038v3.313l11.029.071-11.796 16.649v2.607h16.81V27.78h-11.85z"/>
    </symbol>

     <symbol id="icon-vector-down" viewBox="0 0 51 32">
      <path   opacity=".8" d="m1.897 12.252 16.576 16.576a6.369 6.369 0 0 0 4.512 1.871 6.375 6.375 0 0 0 4.512-1.871l16.576-16.576c4.032-4.032 1.152-10.944-4.544-10.944H6.377c-5.696 0-8.512 6.912-4.48 10.944z"/>
    </symbol>
    
  </defs>
</svg>


   
 